HIERARCHY
ROOT Hips
{
	OFFSET -4.579762 108.000748 -0.688670
	CHANNELS 6 Xposition Yposition Zposition Xrotation Yrotation Zrotation
	JOINT Chest
	{
		OFFSET 0.745478 13.514610 1.718628
		CHANNELS 3 Xrotation Yrotation Zrotation
		JOINT Chest2
		{
			OFFSET -0.019343 21.411079 0.794917
			CHANNELS 3 Xrotation Yrotation Zrotation
			JOINT Chest3
			{
				OFFSET 0.990260 14.781357 -1.830536
				CHANNELS 3 Xrotation Yrotation Zrotation
				JOINT Neck
				{
					OFFSET 0.864874 17.258438 -0.120456
					CHANNELS 3 Xrotation Yrotation Zrotation
					JOINT Head
					{
						OFFSET -1.878515 10.283981 0.733946
						CHANNELS 3 Xrotation Yrotation Zrotation
						End Site
						{
							OFFSET -1.845392 10.294357 0.669628
						}
					}
				}
				JOINT LeftCollar
				{
					OFFSET 4.323064 13.082626 3.458408
					CHANNELS 3 Xrotation Yrotation Zrotation
					JOINT LeftUpArm
					{
						OFFSET 16.522257 5.676636 -1.813879
						CHANNELS 3 Xrotation Yrotation Zrotation
						JOINT LeftLowArm
						{
							OFFSET -3.635471 24.370911 23.077461
							CHANNELS 3 Xrotation Yrotation Zrotation
							JOINT LeftHand
							{
								OFFSET -13.269412 25.736938 7.904428
								CHANNELS 3 Xrotation Yrotation Zrotation
								End Site
								{
									OFFSET -2.900091 5.624969 1.727558
								}
							}
						}
					}
				}
				JOINT RightCollar
				{
					OFFSET -3.963539 13.488144 2.041778
					CHANNELS 3 Xrotation Yrotation Zrotation
					JOINT RightUpArm
					{
						OFFSET -15.692667 3.459641 -7.089942
						CHANNELS 3 Xrotation Yrotation Zrotation
						JOINT RightLowArm
						{
							OFFSET -11.200813 21.560181 23.440012
							CHANNELS 3 Xrotation Yrotation Zrotation
							JOINT RightHand
							{
								OFFSET 11.521933 24.340134 13.257383
								CHANNELS 3 Xrotation Yrotation Zrotation
								End Site
								{
									OFFSET 2.518225 5.319794 2.897520
								}
							}
						}
					}
				}
			}
		}
	}
	JOINT LeftUpLeg
	{
		OFFSET 9.430920 -0.934525 3.256310
		CHANNELS 3 Xrotation Yrotation Zrotation
		JOINT LeftLowLeg
		{
			OFFSET -7.983277 -45.226555 11.611007
			CHANNELS 3 Xrotation Yrotation Zrotation
			JOINT LeftFoot
			{
				OFFSET -1.702186 -44.677704 -1.254228
				CHANNELS 3 Xrotation Yrotation Zrotation
				JOINT LeftToe
				{
					OFFSET -6.161916 -17.640572 14.505194
					CHANNELS 3 Xrotation Yrotation Zrotation
					End Site
					{
						OFFSET -5.678157 -3.926345 22.625235
					}
				}
			}
		}
	}
	JOINT RightUpLeg
	{
		OFFSET -9.430933 0.934334 -3.256337
		CHANNELS 3 Xrotation Yrotation Zrotation
		JOINT RightLowLeg
		{
			OFFSET 2.329136 -45.594212 -12.639401
			CHANNELS 3 Xrotation Yrotation Zrotation
			JOINT RightFoot
			{
				OFFSET 6.663393 -40.696499 -17.319733
				CHANNELS 3 Xrotation Yrotation Zrotation
				JOINT RightToe
				{
					OFFSET -2.983660 -20.969744 10.532057
					CHANNELS 3 Xrotation Yrotation Zrotation
					End Site
					{
						OFFSET -9.435523 -9.480111 19.510368
					}
				}
			}
		}
	}
}
MOTION
Frames: 8
Frame Time: 0.033333
-19.432053 98.430214 11.144765 62.021143 -14.191825 30.710873 -0.319966 0.186360 -1.720567 -10.962001 8.443399 -15.050692 -6.799860 34.348752 19.656581 -28.548097 -2.498685 -4.880975 -0.000003 0.000009 -0.000003 -3.980086 17.434937 -12.408893 16.775978 36.582524 -55.758789 -4.006390 -7.507129 7.742054 0.000000 -0.000001 -0.000007 -0.168814 -0.336999 13.015649 8.094429 -18.956452 36.612314 8.087233 -10.020092 15.410121 0.000004 0.000007 0.000002 -44.682418 6.763988 -4.608126 -10.466313 3.403965 -7.140154 -12.488650 50.530282 26.532630 0.000001 0.000000 0.000002 26.589141 -3.222127 -24.069370 20.333675 3.630738 7.515152 26.076245 -16.335031 5.267968 0.000001 0.000003 -0.000003 
-19.315344 98.412323 11.154686 61.971044 -14.410326 30.914905 -0.134362 0.227610 -1.925783 -10.850358 8.621125 -15.220482 -6.803606 33.931188 19.688743 -28.547074 -2.576037 -4.903116 -0.000002 -0.000000 0.000000 -4.118470 17.729696 -12.237359 17.182746 36.646475 -56.150155 -3.997676 -7.439310 8.171141 -0.000000 -0.000003 -0.000007 0.050267 -0.002461 13.006258 8.143694 -18.976912 36.424586 7.831986 -10.131688 15.072696 -0.000000 -0.000001 0.000003 -44.593827 6.710946 -4.459407 -10.686694 3.589667 -7.389452 -12.310128 51.100880 26.943810 0.000002 0.000002 0.000001 26.743761 -3.251771 -24.762453 21.239670 3.714934 8.510935 25.223240 -17.145047 4.450969 -0.000003 -0.000000 -0.000000 
-19.187340 98.389755 11.172085 62.393635 -14.310683 31.175753 -0.422974 0.260434 -2.000333 -10.990509 8.541844 -15.022277 -6.429309 33.872868 19.333926 -28.301394 -2.369179 -4.963664 0.000001 0.000003 0.000000 -3.933402 17.502665 -12.092965 17.310758 36.972606 -56.007384 -4.069780 -7.177879 8.521488 0.000002 -0.000004 -0.000001 0.106198 -0.292240 12.894445 8.560904 -19.061465 36.638873 7.582600 -9.989372 14.215832 0.000003 -0.000001 0.000005 -45.002580 6.566914 -3.981575 -11.014412 3.713491 -8.124826 -12.399003 51.782960 27.473574 0.000002 -0.000001 -0.000000 26.839394 -3.214237 -24.882939 20.918574 3.668899 8.595579 25.243365 -17.486710 4.300365 0.000003 -0.000000 -0.000006 
-19.063904 98.352753 11.174563 62.590768 -14.104326 31.260919 -0.614292 0.262238 -1.992781 -11.125605 8.539183 -14.978738 -6.146362 33.917862 19.143965 -28.484032 -2.474027 -5.006749 -0.000001 0.000000 -0.000003 -3.881334 17.289143 -11.780642 17.557932 36.648814 -55.906871 -4.193295 -7.145180 8.490052 -0.000001 -0.000005 0.000000 0.280566 -0.178767 12.282133 8.390341 -18.079290 35.386961 7.277709 -10.566597 14.932016 0.000001 -0.000004 0.000005 -45.439859 6.427039 -3.491086 -10.854362 3.619649 -9.195835 -12.809730 51.968095 27.829321 -0.000000 0.000002 0.000001 27.193923 -3.237837 -24.778028 20.498820 3.578413 8.738632 25.430568 -18.587371 3.974879 -0.000000 -0.000002 -0.000000 
-18.953136 98.306564 11.180375 62.215947 -13.779942 31.044914 -0.413816 0.260221 -2.043654 -11.019550 8.489397 -15.121103 -6.464599 33.942588 19.422702 -28.214446 -2.126427 -5.196661 -0.000001 0.000007 -0.000001 -4.000012 16.388749 -11.767672 17.027049 36.394158 -56.284580 -2.652725 -7.895361 9.178211 0.000002 -0.000003 -0.000005 -0.041200 0.123027 12.023327 7.386638 -18.328159 35.560755 8.066365 -9.855774 15.306462 -0.000000 -0.000003 -0.000000 -45.067572 6.555051 -3.792392 -10.154266 3.447529 -9.828179 -14.591526 51.119683 28.051988 0.000001 0.000002 0.000001 27.596432 -3.481352 -24.402808 20.622225 3.647199 8.838529 25.713840 -18.100741 4.457268 0.000006 -0.000002 -0.000004 
-18.827990 98.246719 11.178996 62.662806 -13.998159 31.209197 -0.859762 0.228067 -1.610396 -10.774076 8.723121 -15.461614 -6.604159 33.852426 19.499639 -28.078151 -2.090825 -5.173155 0.000002 -0.000002 0.000000 -3.788849 17.038662 -12.000674 17.434671 36.455336 -56.451288 -3.224657 -7.821875 9.222540 0.000000 -0.000004 -0.000001 0.297572 0.397997 11.899295 7.449954 -18.178315 34.710810 7.680271 -9.927687 15.160194 0.000003 0.000002 0.000002 -44.858579 6.538628 -3.903737 -11.040794 3.571021 -9.527210 -13.284526 51.727014 27.872079 -0.000000 0.000000 0.000001 27.414098 -3.423354 -24.990819 21.128797 3.679960 9.425251 25.576207 -18.405212 4.085578 0.000001 -0.000001 -0.000003 
-18.688469 98.180466 11.188940 62.928309 -14.092764 31.550044 -0.931445 0.243874 -1.793908 -10.967019 8.841144 -15.610397 -6.541525 34.060712 19.632042 -28.088627 -2.192451 -5.044329 -0.000001 0.000005 -0.000001 -3.675032 17.233985 -12.213887 17.731770 36.520827 -56.611309 -3.909602 -7.716072 9.116307 0.000000 -0.000005 0.000002 0.241035 0.029280 11.871443 7.464073 -17.858819 34.253395 7.331926 -10.257121 15.235536 0.000003 -0.000003 0.000009 -45.125417 6.524638 -3.767093 -11.202059 3.763287 -9.891425 -13.357932 52.516177 28.442021 -0.000000 0.000001 0.000001 27.448177 -3.463084 -25.685381 21.546113 3.648502 9.852769 26.244239 -18.978357 4.221473 0.000004 0.000001 -0.000003 
-18.555218 98.116577 11.198762 62.924149 -13.851919 31.563083 -0.955498 0.246901 -1.837182 -11.192392 8.786233 -15.473184 -6.407174 33.979740 19.614693 -27.957124 -2.075552 -5.089737 -0.000001 0.000002 0.000002 -3.592437 17.076948 -12.280319 17.862550 36.562949 -56.734683 -4.302520 -7.611590 8.910966 0.000001 -0.000005 0.000000 0.304448 0.144047 11.731366 7.331120 -17.834271 33.930450 7.247517 -10.409464 15.201262 0.000001 0.000001 -0.000003 -44.727265 6.581114 -4.141779 -11.712507 4.081291 -9.922432 -13.591692 52.055580 28.284338 -0.000000 0.000001 0.000003 27.431631 -3.469722 -25.722545 21.750462 3.539717 10.064148 26.462719 -19.378966 4.170174 0.000004 -0.000002 -0.000000 
